<?xml version="1.0" encoding="utf-8"?>
<!-- Generator: Adobe Illustrator 23.0.4, SVG Export Plug-In . SVG Version: 6.00 Build 0)  -->
<svg version="1.1" id="Calque_1" xmlns="http://www.w3.org/2000/svg" xmlns:xlink="http://www.w3.org/1999/xlink" x="0px" y="0px"
	 width="140px" height="31.4px" viewBox="0 0 140 31.4" style="enable-background:new 0 0 140 31.4;" xml:space="preserve">
<style type="text/css">
	.st0{fill:#29813E;}
	.st1{fill:#0D0C0D;}
	.st2{fill:#FB212B;}
</style>
<g>
	<rect x="4.3" y="4.4" transform="matrix(0.8484 -0.5294 0.5294 0.8484 -5.9248 10.7129)" class="st0" width="22.9" height="22.7"/>
	<g>
		<path class="st1" d="M61.8,17.7c0,0,0,0.1,0,0.1c0,2.1-0.7,3.7-2,4.6c-1.1,0.7-2.8,1.1-5.1,1.1h-7.2c-1.4,0-2.6-0.1-3.6-0.3
			c-1-0.2-1.8-0.5-2.5-0.9C41,22,40.5,21.5,40.1,21c-0.4-0.6-0.7-1.3-0.8-2.2c-0.2-1-0.3-3.1-0.3-6.1c0-3.6,0.7-6,1.9-7.3h0
			c1.3-1.3,3.7-1.9,7.2-1.9h6.6c2.3,0,4.1,0.5,5.3,1.4c1.2,0.9,1.8,2.4,1.8,4.3v0.1c0,0.2-0.1,0.3-0.2,0.3h-2
			c-0.2,0-0.3-0.1-0.3-0.3V9.2c0-2.1-1.5-3.1-4.6-3.1h-6.8c-1.2,0-2.1,0.1-2.9,0.2c-0.8,0.2-1.4,0.3-1.8,0.6
			c-0.8,0.5-1.3,1.4-1.5,2.7c-0.1,0.4-0.1,0.9-0.2,1.8c0,0.8,0,1.9,0,3.2c0,1.4,0.1,2.5,0.2,3.4c0.2,0.9,0.4,1.5,0.7,1.9
			c0.7,0.8,2.4,1.3,5,1.3h7.3c1.5,0,2.6-0.2,3.3-0.5c0.9-0.4,1.3-1.2,1.3-2.5v-0.1c0-0.2,0.1-0.3,0.3-0.3h2h0l0,0L61.8,17.7z"/>
		<path class="st1" d="M79.9,15.3H69.1v8c0,0.2-0.1,0.3-0.3,0.3h-2.1c-0.2,0-0.3-0.1-0.3-0.3V4c0-0.2,0.1-0.3,0.3-0.3h13.2
			c1.2,0,2.2,0.1,3,0.3c0.9,0.2,1.5,0.6,2.1,1.1c0.5,0.5,0.9,1.2,1.2,2c0.3,0.8,0.4,1.8,0.4,3C86.5,13.5,84.2,15.3,79.9,15.3
			 M83.8,9c0-0.5-0.1-1-0.3-1.4c-0.2-0.4-0.5-0.7-0.9-0.9c-0.3-0.2-0.7-0.2-1.2-0.3s-1-0.1-1.7-0.1H69.1v6.4h10.6
			c1.3,0,2.3-0.1,2.9-0.4v0c0.4-0.2,0.7-0.5,0.9-0.9c0.2-0.4,0.3-0.9,0.3-1.4L83.8,9L83.8,9z"/>
		<path class="st1" d="M112.7,17.7c0,0,0,0.1,0,0.1c0,2.1-0.7,3.7-2,4.6c-1.1,0.7-2.8,1.1-5.1,1.1h-7.2c-1.4,0-2.6-0.1-3.6-0.3
			c-1-0.2-1.8-0.5-2.5-0.9C91.9,22,91.4,21.5,91,21c-0.4-0.6-0.7-1.3-0.8-2.2c-0.2-1-0.3-3.1-0.3-6.1c0-3.6,0.7-6,1.9-7.3h0
			c1.3-1.3,3.7-1.9,7.2-1.9h6.6c2.3,0,4.1,0.5,5.3,1.4c1.2,0.9,1.8,2.4,1.8,4.3v0.1c0,0.2-0.1,0.3-0.2,0.3h-2
			c-0.2,0-0.3-0.1-0.3-0.3V9.2c0-2.1-1.5-3.1-4.6-3.1h-6.8c-1.2,0-2.1,0.1-2.9,0.2c-0.8,0.2-1.4,0.3-1.8,0.6
			c-0.8,0.5-1.3,1.4-1.5,2.7c-0.1,0.4-0.1,0.9-0.2,1.8c0,0.8,0,1.9,0,3.2c0,1.4,0.1,2.5,0.2,3.4s0.4,1.5,0.7,1.9
			c0.7,0.8,2.4,1.3,5,1.3h7.3c1.5,0,2.6-0.2,3.3-0.5c0.9-0.4,1.3-1.2,1.3-2.5v-0.1c0-0.2,0.1-0.3,0.3-0.3h2h0l0,0L112.7,17.7z"/>
		<path class="st1" d="M139.1,20.3c-0.6,1.3-1.6,2.2-3.1,2.6l0,0c-0.6,0.2-1.4,0.3-2.3,0.5c-1,0.1-2.1,0.2-3.5,0.2h-3
			c-1.4,0-2.5,0-3.5-0.2c-1-0.1-1.8-0.2-2.4-0.5l-0.1,0c-0.7-0.2-1.4-0.6-1.9-1c-0.5-0.5-0.9-1-1.2-1.6c-0.3-0.6-0.5-1.4-0.7-2.4
			c-0.1-1-0.2-2.1-0.2-3.5V3.9c0-0.2,0.1-0.3,0.2-0.3h2c0.2,0,0.3,0.1,0.3,0.3v10.5c0,2.1,0.2,3.7,0.6,4.6c0.4,0.9,1.1,1.4,2.1,1.6
			c0.8,0.2,2.4,0.3,4.8,0.3h3c2.3,0,3.9-0.1,4.8-0.3c1-0.2,1.7-0.8,2-1.6c0.2-0.5,0.4-1,0.5-1.8s0.1-1.7,0.1-2.8V3.9
			c0-0.2,0.1-0.3,0.3-0.3h2c0.2,0,0.3,0.1,0.3,0.3v10.5C140,17.1,139.7,19.1,139.1,20.3"/>
		<path class="st2" d="M23.5,16.7L23.5,16.7l-4.9-7.9c-0.3-0.4-0.7-0.7-1.2-0.7c-0.2,0-0.5,0.1-0.7,0.2l-7.9,4.9
			c-0.4,0.3-0.7,0.7-0.7,1.2c0,0.2,0.1,0.5,0.2,0.7l4.9,7.9c0.3,0.4,0.7,0.7,1.2,0.7c0.2,0,0.5-0.1,0.7-0.2l7.9-4.9
			c0.4-0.3,0.7-0.7,0.7-1.2C23.8,17.2,23.7,16.9,23.5,16.7L23.5,16.7z"/>
		<path class="st2" d="M23.5,16.7L23.5,16.7c0.1,0.2,0.2,0.5,0.2,0.7c0,0.4-0.2,0.8-0.6,1.1l-7.9,4.9c-0.2,0.1-0.5,0.2-0.7,0.2
			c-0.4,0-0.8-0.2-1.1-0.6l-4.9-7.9c-0.1-0.2-0.2-0.5-0.2-0.7"/>
	</g>
</g>
</svg>
